<svg width="129" height="27" viewBox="0 0 129 27" fill="none" xmlns="http://www.w3.org/2000/svg">
<path d="M22.6924 8.76043C22.7027 8.96629 22.7065 9.17469 22.7065 9.38055C22.7065 15.7215 17.8247 23.0308 8.89795 23.0308C6.15552 23.0308 3.60595 22.2366 1.45752 20.8743C2.72829 21.0262 4.01688 20.9291 5.24965 20.5885C6.48242 20.2479 7.6352 19.6706 8.64209 18.8894C7.62948 18.8705 6.64817 18.5393 5.83535 17.9422C5.02253 17.345 4.41883 16.5117 4.10866 15.5589C4.83646 15.6934 5.58549 15.6651 6.30081 15.4763C5.20231 15.2561 4.2146 14.6674 3.50508 13.8098C2.79555 12.9522 2.40785 11.8785 2.40766 10.7707V10.711C3.08163 11.0816 3.8354 11.2876 4.60623 11.3121C3.5775 10.6342 2.84928 9.59393 2.5702 8.40349C2.29112 7.21305 2.48223 5.96222 3.10452 4.9063C4.32311 6.38856 5.84354 7.60089 7.56707 8.46455C9.29061 9.3282 11.1787 9.82387 13.1087 9.91934C13.0252 9.56051 12.9833 9.19344 12.9839 8.82524C12.9839 8.19552 13.1095 7.57196 13.3533 6.99018C13.5972 6.40841 13.9546 5.87981 14.4052 5.43459C14.8558 4.98936 15.3907 4.63623 15.9794 4.39536C16.5681 4.15449 17.1991 4.0306 17.8362 4.03077C18.5003 4.0297 19.1574 4.16348 19.767 4.42383C20.3765 4.68417 20.9254 5.06551 21.3797 5.54421C22.4663 5.33161 23.5084 4.93801 24.4615 4.38022C24.099 5.4911 23.3405 6.434 22.3272 7.03351C23.2893 6.92079 24.2288 6.66636 25.1147 6.27869C24.4639 7.24246 23.6435 8.08303 22.6924 8.76043Z" fill="#333333"/>
<g clip-path="url(#clip0_157_253)">
<path d="M68.5716 13.5C68.5716 14.5344 68.1652 15.5263 67.4419 16.2577C66.7185 16.9891 65.7374 17.4 64.7144 17.4C63.6915 17.4 62.7104 16.9891 61.987 16.2577C61.2637 15.5263 60.8573 14.5344 60.8573 13.5C60.8573 13.2777 60.8804 13.0606 60.9203 12.85H59.5716V18.0461C59.5716 18.4075 59.8609 18.7 60.2183 18.7H69.2119C69.3832 18.6997 69.5473 18.6306 69.6683 18.508C69.7893 18.3854 69.8573 18.2193 69.8573 18.0461V12.85H68.5086C68.5484 13.0606 68.5716 13.2777 68.5716 13.5ZM64.7144 16.1C65.0522 16.0999 65.3867 16.0326 65.6987 15.9018C66.0107 15.771 66.2942 15.5794 66.533 15.3378C66.7718 15.0963 66.9611 14.8096 67.0903 14.494C67.2195 14.1784 67.286 13.8402 67.2859 13.4987C67.2858 13.1572 67.2192 12.819 67.0898 12.5035C66.9605 12.1881 66.771 11.9014 66.5321 11.66C66.2932 11.4185 66.0096 11.227 65.6975 11.0964C65.3854 10.9658 65.0509 10.8986 64.7132 10.8987C64.031 10.8989 63.3768 11.1731 62.8946 11.6609C62.4124 12.1487 62.1416 12.8103 62.1417 13.5C62.1419 14.1898 62.413 14.8512 62.8955 15.3388C63.378 15.8264 64.0323 16.1002 64.7144 16.1ZM67.8002 10.77H69.3417C69.4441 10.77 69.5424 10.729 69.6149 10.6559C69.6875 10.5828 69.7284 10.4836 69.7287 10.38V8.82132C69.7287 8.71754 69.688 8.61801 69.6154 8.54463C69.5428 8.47125 69.4444 8.43002 69.3417 8.43002H67.8002C67.6975 8.43002 67.5991 8.47125 67.5265 8.54463C67.4539 8.61801 67.4132 8.71754 67.4132 8.82132V10.38C67.4144 10.5945 67.588 10.77 67.8002 10.77ZM64.7144 1.02002C61.4409 1.02002 58.3015 2.33487 55.9867 4.67533C53.672 7.01578 52.3716 10.1901 52.3716 13.5C52.3716 16.8099 53.672 19.9843 55.9867 22.3247C58.3015 24.6652 61.4409 25.98 64.7144 25.98C66.3353 25.98 67.9403 25.6572 69.4378 25.03C70.9354 24.4029 72.296 23.4836 73.4422 22.3247C74.5883 21.1658 75.4975 19.7901 76.1178 18.2759C76.738 16.7618 77.0573 15.1389 77.0573 13.5C77.0573 11.8611 76.738 10.2383 76.1178 8.72413C75.4975 7.20999 74.5883 5.8342 73.4422 4.67533C72.296 3.51645 70.9354 2.59718 69.4378 1.97C67.9403 1.34282 66.3353 1.02002 64.7144 1.02002ZM71.143 18.5557C71.143 19.35 70.5002 20 69.7146 20H59.7143C58.9287 20 58.2859 19.35 58.2859 18.5557V8.44432C58.2859 7.65002 58.9287 7.00002 59.7143 7.00002H69.7146C70.5002 7.00002 71.143 7.65002 71.143 8.44432V18.5557Z" fill="#333333"/>
</g>
<g clip-path="url(#clip1_157_253)">
<path d="M116.143 1.02002C109.326 1.02002 103.8 6.60742 103.8 13.5C103.8 20.3926 109.326 25.98 116.143 25.98C122.96 25.98 128.486 20.3926 128.486 13.5C128.486 6.60742 122.96 1.02002 116.143 1.02002ZM119.066 9.64422H117.211C116.991 9.64422 116.747 9.93672 116.747 10.3254V11.68H119.068L118.717 13.6118H116.747V19.4111H114.557V13.6118H112.571V11.68H114.557V10.5438C114.557 8.91362 115.676 7.58892 117.211 7.58892H119.066V9.64422Z" fill="#333333"/>
</g>
<defs>
<clipPath id="clip0_157_253">
<rect width="25.7143" height="26" fill="white" transform="translate(51.8574 0.5)"/>
</clipPath>
<clipPath id="clip1_157_253">
<rect width="25.7143" height="26" fill="white" transform="translate(103.286 0.5)"/>
</clipPath>
</defs>
</svg>
